<?xml version="1.0" standalone="no"?>
<!DOCTYPE svg PUBLIC "-//W3C//DTD SVG 20010904//EN"
 "http://www.w3.org/TR/2001/REC-SVG-20010904/DTD/svg10.dtd">
<svg version="1.0" xmlns="http://www.w3.org/2000/svg"
 width="582.000000pt" height="450.000000pt" viewBox="0 0 582.000000 450.000000"
 preserveAspectRatio="xMidYMid meet">
<metadata>
Created by potrace 1.16, written by Peter Selinger 2001-2019
</metadata>
<g transform="translate(0.000000,450.000000) scale(0.100000,-0.100000)"
fill="#000000" stroke="none">
<path d="M0 3573 c0 -829 2 -925 15 -899 18 35 19 39 2 30 -7 -4 -9 -3 -4 2 5
5 14 9 19 9 6 0 13 6 16 14 3 9 0 11 -9 6 -8 -5 -1 6 15 23 30 33 43 41 30 21
-4 -7 -3 -10 2 -7 5 2 27 13 49 24 38 18 69 19 705 21 366 2 659 -1 653 -5 -8
-5 1 -8 21 -8 38 0 111 -48 100 -66 -4 -6 -3 -8 3 -5 6 4 16 0 23 -8 7 -8 16
-13 20 -10 5 3 12 0 16 -6 4 -8 3 -9 -4 -5 -16 9 -15 6 5 -40 14 -32 18 -80
21 -279 3 -232 4 -241 25 -257 25 -20 42 -23 31 -6 -4 7 -3 8 5 4 6 -4 9 -11
7 -15 -6 -9 92 -108 100 -103 3 2 9 0 12 -4 4 -4 1 -4 -5 0 -17 9 -16 1 3 -35
9 -19 13 -43 10 -62 -5 -26 -4 -28 4 -12 8 15 9 11 4 -20 -7 -48 -28 -91 -62
-127 -24 -26 -24 -43 1 -43 5 0 12 -7 14 -15 4 -12 3 -13 -5 -1 -7 9 -8 -8 -5
-51 6 -72 -12 -172 -30 -161 -6 3 -7 1 -3 -6 4 -6 1 -23 -8 -36 -19 -29 -20
-39 -3 -29 7 4 9 3 4 -2 -5 -5 -14 -9 -19 -9 -6 0 -13 -6 -16 -14 -3 -9 0 -11
9 -6 8 4 -6 -13 -31 -39 -43 -45 -58 -57 -45 -36 9 15 2 13 -47 -15 -117 -65
-282 -71 -451 -15 -70 24 -95 36 -85 42 9 7 8 8 -5 4 -10 -3 -35 3 -57 14 -29
15 -40 17 -48 7 -17 -20 -14 -32 10 -39 14 -4 6 -6 -21 -4 -31 2 -61 -4 -98
-21 -30 -14 -61 -22 -69 -19 -9 3 -12 1 -9 -4 4 -6 -18 -10 -58 -10 -48 0 -76
6 -113 25 -57 29 -57 29 -48 13 4 -7 -6 -1 -22 14 -16 14 -38 28 -49 31 -20 5
-20 5 0 6 12 0 27 -5 34 -12 11 -10 13 -9 9 2 -2 8 -26 20 -54 27 -27 6 -58
15 -68 19 -15 6 -17 5 -11 -5 5 -9 4 -11 -4 -6 -6 4 -9 11 -6 15 5 9 -44 59
-50 51 -2 -3 -7 -1 -12 4 -5 6 -2 6 6 1 11 -6 13 -4 8 9 -4 10 -7 20 -7 22 0
2 -42 4 -92 4 -71 0 -103 5 -137 20 -51 23 -54 24 -45 8 4 -7 -12 5 -35 27
-41 39 -51 52 -30 39 7 -4 10 -1 7 7 -3 8 -11 13 -17 11 -7 -1 -10 2 -7 7 3 5
2 20 -3 33 -6 14 -10 -282 -10 -794 l-1 -818 2910 0 2910 0 0 2250 0 2250
-2910 0 -2910 0 0 -927z m4978 890 c-10 -2 -26 -2 -35 0 -10 3 -2 5 17 5 19 0
27 -2 18 -5z m0 -20 c-10 -2 -26 -2 -35 0 -10 3 -2 5 17 5 19 0 27 -2 18 -5z
m363 -30 c13 -16 12 -17 -3 -4 -17 13 -22 21 -14 21 2 0 10 -8 17 -17z m-751
4 c0 -2 -10 -12 -22 -23 l-23 -19 19 23 c18 21 26 27 26 19z m805 -47 c10 -11
16 -20 13 -20 -3 0 -13 9 -23 20 -10 11 -16 20 -13 20 3 0 13 -9 23 -20z
m-855 -4 c0 -2 -8 -10 -17 -17 -16 -13 -17 -12 -4 4 13 16 21 21 21 13z m60
-41 c-24 -25 -46 -45 -49 -45 -3 0 15 20 39 45 24 25 46 45 49 45 3 0 -15 -20
-39 -45z m745 -5 c21 -22 37 -40 34 -40 -3 0 -23 18 -44 40 -21 22 -37 40 -34
40 3 0 23 -18 44 -40z m-835 6 c0 -2 -8 -10 -17 -17 -16 -13 -17 -12 -4 4 13
16 21 21 21 13z m931 -13 c13 -16 12 -17 -3 -4 -10 7 -18 15 -18 17 0 8 8 3
21 -13z m-964 -280 c-3 -10 -5 -4 -5 12 0 17 2 24 5 18 2 -7 2 -21 0 -30z
m970 -35 c-3 -7 -5 -2 -5 12 0 14 2 19 5 13 2 -7 2 -19 0 -25z m20 0 c-3 -7
-5 -2 -5 12 0 14 2 19 5 13 2 -7 2 -19 0 -25z m70 0 c-3 -7 -5 -2 -5 12 0 14
2 19 5 13 2 -7 2 -19 0 -25z m20 0 c-3 -8 -6 -5 -6 6 -1 11 2 17 5 13 3 -3 4
-12 1 -19z m-1080 -60 c-3 -8 -6 -5 -6 6 -1 11 2 17 5 13 3 -3 4 -12 1 -19z
m-70 -40 c-3 -8 -6 -5 -6 6 -1 11 2 17 5 13 3 -3 4 -12 1 -19z m-1479 -75
c-10 -2 -28 -2 -40 0 -13 2 -5 4 17 4 22 1 32 -1 23 -4z m-23 -494 l40 -6 -35
-2 c-20 0 -41 4 -48 11 -9 9 -11 75 -10 247 l2 236 6 -240 5 -240 40 -6z m35
246 l0 -235 -35 0 -35 0 0 235 0 235 35 0 35 0 0 -235z m350 175 c8 -5 11 -10
5 -10 -5 0 -17 5 -25 10 -8 5 -10 10 -5 10 6 0 17 -5 25 -10z m-706 -22 c9
-12 16 -27 16 -33 -1 -5 -8 2 -16 18 -17 31 -24 33 -65 11 -31 -15 -32 -19
-14 -69 4 -13 1 -12 -9 5 -22 37 -20 48 17 70 41 25 52 25 71 -2z m729 -5 c10
-3 16 -11 14 -17 -3 -6 -40 -101 -83 -211 -80 -207 -89 -226 -108 -224 -6 0
-5 3 3 6 9 4 2 11 -20 21 -19 8 -37 14 -41 14 -4 -1 -4 6 -1 15 5 13 8 14 11
3 4 -11 67 141 167 399 3 8 12 10 23 6 9 -4 25 -10 35 -12z m-658 -198 c49
-113 86 -206 84 -208 -10 -7 -62 -27 -64 -25 -6 7 -175 402 -175 408 0 8 39
28 56 29 6 1 50 -91 99 -204z m688 170 c-3 -9 -8 -14 -10 -11 -3 3 -2 9 2 15
9 16 15 13 8 -4z m-122 -22 c-12 -20 -14 -14 -5 12 4 9 9 14 11 11 3 -2 0 -13
-6 -23z m100 -30 c-12 -20 -14 -14 -5 12 4 9 9 14 11 11 3 -2 0 -13 -6 -23z
m-682 -38 c0 -5 -6 1 -14 15 -8 14 -14 30 -14 35 0 6 6 -1 14 -15 8 -14 14
-29 14 -35z m560 6 c-6 -18 -13 -30 -15 -28 -2 2 1 18 7 36 6 18 13 30 15 28
2 -2 -1 -18 -7 -36z m102 -18 c-12 -20 -14 -14 -5 12 4 9 9 14 11 11 3 -2 0
-13 -6 -23z m-761 -18 c0 -5 -5 -3 -10 5 -5 8 -10 20 -10 25 0 6 5 3 10 -5 5
-8 10 -19 10 -25z m129 -40 c0 -5 -6 1 -14 15 -8 14 -14 30 -14 35 0 6 6 -1
14 -15 8 -14 14 -29 14 -35z m502 8 c-12 -20 -14 -14 -5 12 4 9 9 14 11 11 3
-2 0 -13 -6 -23z m110 0 c-12 -20 -14 -14 -5 12 4 9 9 14 11 11 3 -2 0 -13 -6
-23z m370 -20 c13 -16 24 -35 24 -44 0 -13 -74 -85 -324 -313 -19 -17 -31 -26
-28 -20 4 7 0 17 -8 24 -8 7 -15 9 -15 5 0 -5 -9 0 -20 10 -12 10 -19 25 -18
32 3 13 347 333 358 333 4 0 17 -12 31 -27z m980 10 c13 -16 12 -17 -3 -4 -17
13 -22 21 -14 21 2 0 10 -8 17 -17z m679 13 c0 -2 -8 -10 -17 -17 -16 -13 -17
-12 -4 4 13 16 21 21 21 13z m-2731 -61 c0 -5 -6 1 -14 15 -8 14 -14 30 -14
35 0 6 6 -1 14 -15 8 -14 14 -29 14 -35z m-360 25 l-24 -20 30 15 c28 14 31
13 60 -14 16 -15 92 -83 168 -151 127 -112 144 -132 120 -132 -12 0 -33 -19
-33 -30 0 -6 7 -5 15 2 26 21 16 5 -12 -21 -14 -13 -23 -18 -19 -11 5 9 3 12
-6 10 -14 -3 -348 286 -348 301 0 4 22 -13 48 -38 92 -88 292 -262 291 -254 0
4 -72 71 -160 148 -125 110 -158 144 -153 159 5 14 3 16 -7 11 -8 -5 -3 4 10
18 14 15 29 27 34 27 5 0 -1 -9 -14 -20z m3051 16 c0 -2 -8 -10 -17 -17 -16
-13 -17 -12 -4 4 13 16 21 21 21 13z m-2571 -61 c0 -5 -6 1 -14 15 -8 14 -14
30 -14 35 0 6 6 -1 14 -15 8 -14 14 -29 14 -35z m452 28 c-12 -20 -14 -14 -5
12 4 9 9 14 11 11 3 -2 0 -13 -6 -23z m108 -12 c-6 -18 -13 -30 -15 -28 -2 2
1 18 7 36 6 18 13 30 15 28 2 -2 -1 -18 -7 -36z m1312 22 c13 -16 12 -17 -3
-4 -17 13 -22 21 -14 21 2 0 10 -8 17 -17z m709 4 c0 -2 -19 -21 -42 -42 l-43
-40 40 43 c36 39 45 47 45 39z m-585 -47 c21 -22 37 -40 34 -40 -3 0 -23 18
-44 40 -21 22 -37 40 -34 40 3 0 23 -18 44 -40z m655 27 c0 -1 -24 -25 -52
-52 l-53 -50 50 53 c46 48 55 57 55 49z m-745 -27 c10 -11 16 -20 13 -20 -3 0
-13 9 -23 20 -10 11 -16 20 -13 20 3 0 13 -9 23 -20z m-1996 -45 c0 -5 -6 1
-14 15 -8 14 -14 30 -14 35 0 6 6 -1 14 -15 8 -14 14 -29 14 -35z m510 -9
c-12 -31 -24 -55 -26 -53 -2 2 6 30 18 61 12 31 24 55 26 53 2 -2 -6 -30 -18
-61z m2091 60 c0 -2 -8 -10 -17 -17 -16 -13 -17 -12 -4 4 13 16 21 21 21 13z
m-2481 -71 c0 -5 -6 1 -14 15 -8 14 -14 30 -14 35 0 6 6 -1 14 -15 8 -14 14
-29 14 -35z m502 18 c-12 -20 -14 -14 -5 12 4 9 9 14 11 11 3 -2 0 -13 -6 -23z
m2099 23 c0 -2 -8 -10 -17 -17 -16 -13 -17 -12 -4 4 13 16 21 21 21 13z m-679
-23 c13 -16 12 -17 -3 -4 -17 13 -22 21 -14 21 2 0 10 -8 17 -17z m539 13 c0
-2 -8 -10 -17 -17 -16 -13 -17 -12 -4 4 13 16 21 21 21 13z m-549 -33 c13 -16
12 -17 -3 -4 -17 13 -22 21 -14 21 2 0 10 -8 17 -17z m134 -3 c10 -11 16 -20
13 -20 -3 0 -13 9 -23 20 -10 11 -16 20 -13 20 3 0 13 -9 23 -20z m-2136 -45
c0 -5 -6 1 -14 15 -8 14 -14 30 -14 35 0 6 6 -1 14 -15 8 -14 14 -29 14 -35z
m572 18 c-12 -20 -14 -14 -5 12 4 9 9 14 11 11 3 -2 0 -13 -6 -23z m1485 5
c12 -14 13 -18 3 -10 -9 6 -18 10 -21 7 -2 -3 -5 2 -5 10 0 19 0 19 23 -7z
m-1937 -43 c0 -5 -6 1 -14 15 -8 14 -14 30 -14 35 0 6 6 -1 14 -15 8 -14 14
-29 14 -35z m2652 28 c13 -16 12 -17 -3 -4 -17 13 -22 21 -14 21 2 0 10 -8 17
-17z m-891 -6 c0 -2 -15 -16 -32 -33 l-33 -29 29 33 c28 30 36 37 36 29z
m-1329 -34 c-12 -20 -14 -14 -5 12 4 9 9 14 11 11 3 -2 0 -13 -6 -23z m-537 1
c3 -8 2 -12 -4 -9 -6 3 -10 10 -10 16 0 14 7 11 14 -7z m2309 -19 c-7 -21 -12
-19 -10 4 0 11 5 18 9 15 4 -3 5 -11 1 -19z m392 15 c3 -6 -1 -7 -9 -4 -18 7
-21 14 -7 14 6 0 13 -4 16 -10z m-2645 -25 c-14 -8 -29 -14 -35 -14 -5 0 1 6
15 14 14 8 30 14 35 14 6 0 -1 -6 -15 -14z m1887 9 c-3 -3 -12 -4 -19 -1 -8 3
-5 6 6 6 11 1 17 -2 13 -5z m60 0 c-3 -3 -12 -4 -19 -1 -8 3 -5 6 6 6 11 1 17
-2 13 -5z m-200 -56 c-3 -7 -5 -2 -5 12 0 14 2 19 5 13 2 -7 2 -19 0 -25z
m-646 5 c12 -14 12 -16 0 -8 -11 6 -13 4 -7 -11 5 -10 10 -26 13 -34 3 -11
-47 -41 -186 -110 -105 -52 -189 -96 -187 -98 2 -2 85 38 185 87 99 50 184 91
188 90 9 0 -358 -188 -370 -188 -8 -1 -47 59 -47 72 0 4 90 52 201 107 110 55
195 100 187 100 -7 -1 -98 -45 -203 -98 -192 -98 -196 -101 -180 -147 3 -11
-1 -7 -10 8 -13 23 -14 31 -4 44 14 16 376 202 395 202 6 1 18 -7 25 -16z
m-1395 -181 c-5 -4 -326 156 -326 163 0 3 74 -32 165 -77 90 -45 163 -84 161
-86z m-390 121 c-8 -15 -15 -25 -16 -21 0 12 23 58 27 54 3 -2 -2 -17 -11 -33z
m224 -53 c99 -50 180 -92 180 -95 0 -12 -24 -55 -32 -55 -11 0 -368 179 -368
185 0 12 24 55 32 55 4 0 89 -41 188 -90z m2235 70 c10 -11 16 -20 13 -20 -3
0 -13 9 -23 20 -10 11 -16 20 -13 20 3 0 13 -9 23 -20z m-2255 -150 c96 -49
171 -89 165 -89 -5 0 -89 40 -185 89 -96 49 -170 89 -165 89 6 0 89 -40 185
-89z m2721 -157 c13 -16 12 -17 -3 -4 -17 13 -22 21 -14 21 2 0 10 -8 17 -17z
m95 -15 l29 -33 -32 29 c-31 28 -38 36 -30 36 2 0 16 -15 33 -32z m-258 -35
c-76 -2 -200 -2 -275 0 -76 1 -14 3 137 3 151 0 213 -2 138 -3z m336 -30 c8
-19 2 -16 -25 13 -23 25 -23 26 -2 13 13 -7 25 -19 27 -26z m364 30 c-65 -2
-171 -2 -235 0 -65 1 -12 3 117 3 129 0 182 -2 118 -3z m-4315 -10 c-177 -2
-469 -2 -650 0 -180 1 -35 2 322 2 358 0 505 -1 328 -2z m1222 2 c-21 -7 -179
-12 -160 -4 11 4 54 8 95 8 41 -1 71 -2 65 -4z m485 -10 c9 -11 10 -19 3 -26
-8 -8 -11 -6 -10 7 2 18 -10 19 -208 19 l-210 0 -6 -40 -6 -40 -2 36 c0 19 4
40 11 47 9 9 70 12 214 12 169 0 204 -2 214 -15z m280 8 l-214 -3 -36 -33 -35
-32 34 38 35 37 215 -2 216 -3 -215 -2z m415 -2 c11 -5 -12 -6 -55 -4 -98 6
-112 11 -30 12 36 0 74 -4 85 -8z m-1366 -14 c-2 -2 -17 -11 -34 -21 l-30 -17
24 20 c13 12 28 21 34 21 6 0 8 -1 6 -3z m201 -64 c15 -86 52 -189 68 -186 6
2 9 -3 6 -11 -13 -33 115 -156 200 -191 31 -13 34 -18 40 -70 3 -31 11 -90 17
-131 l11 -74 169 0 c194 0 170 -16 189 125 18 137 17 133 73 161 123 63 216
204 239 362 l11 84 97 -5 c78 -3 103 -8 126 -24 31 -22 78 -72 55 -58 -9 5
-12 3 -9 -6 3 -8 10 -14 15 -14 6 0 15 -4 20 -9 5 -5 2 -6 -6 -1 -9 5 -12 3
-9 -6 3 -8 9 -13 14 -12 15 2 15 -22 21 -512 5 -522 3 -546 -53 -623 l-35 -47
36 39 c19 22 42 60 50 85 7 26 14 37 14 27 1 -32 -36 -99 -75 -136 -21 -19
-34 -29 -30 -22 9 16 9 16 -48 -13 l-49 -25 -659 0 c-717 0 -688 -2 -767 57
-29 21 -32 22 -17 5 10 -12 41 -33 69 -47 28 -14 44 -25 36 -25 -20 0 -99 51
-124 80 -11 13 -14 20 -6 15 9 -5 12 -3 9 6 -3 8 -10 14 -15 14 -6 0 -15 4
-20 9 -5 5 -3 6 5 2 16 -9 15 3 -3 34 -8 14 -15 36 -16 50 l-1 25 -6 -23 c-4
-13 -6 77 -5 200 2 123 4 347 6 498 2 291 4 305 55 363 8 9 13 20 9 23 -3 3
-19 -18 -36 -48 -17 -29 -31 -48 -31 -42 0 15 53 97 75 114 11 9 16 10 11 3
-10 -18 4 -16 24 2 29 26 93 44 167 44 l71 1 12 -67z m7 45 c-3 -8 -6 -5 -6 6
-1 11 2 17 5 13 3 -3 4 -12 1 -19z m450 2 c-2 -11 -7 -23 -12 -27 -4 -5 -5 -1
0 7 4 8 -16 -7 -46 -35 -29 -27 -55 -51 -57 -52 -9 -4 163 -53 173 -49 6 2 11
-4 12 -13 1 -11 -20 -26 -63 -45 -47 -21 -61 -32 -52 -38 8 -6 3 -8 -17 -4
-57 12 -2 -11 83 -35 45 -12 82 -26 82 -31 0 -5 4 -7 9 -3 5 3 12 1 16 -4 3
-6 -4 -8 -17 -6 -15 3 -32 -4 -50 -22 l-28 -27 0 -143 0 -143 -54 0 -53 0 -7
48 c-3 26 -11 82 -17 125 l-11 78 -51 25 c-69 36 -149 113 -185 183 -33 61
-62 156 -62 203 l0 28 205 0 c198 0 205 -1 202 -20z m517 4 c3 -9 5 -30 5 -47
-2 -30 -2 -29 -9 8 -6 36 -7 37 -9 9 -2 -43 -29 -130 -58 -188 -34 -67 -104
-139 -168 -172 -61 -32 -58 -27 -76 -176 l-13 -108 -53 0 -53 0 0 139 0 139
45 40 c25 22 45 42 45 44 0 3 -31 16 -70 29 -38 13 -70 26 -70 29 0 4 39 24
88 46 l87 40 -105 33 c-58 17 -112 35 -120 38 -8 3 -18 5 -22 5 -13 -3 -9 5 9
19 14 12 16 12 9 -1 -5 -8 16 9 45 38 l54 52 216 0 c189 0 218 -2 223 -16z
m33 -31 c-3 -10 -5 -2 -5 17 0 19 2 27 5 18 2 -10 2 -26 0 -35z m1748 7 c10
-11 16 -20 13 -20 -3 0 -13 9 -23 20 -10 11 -16 20 -13 20 3 0 13 -9 23 -20z
m-3530 -20 c10 -11 16 -20 13 -20 -3 0 -13 9 -23 20 -10 11 -16 20 -13 20 3 0
13 -9 23 -20z m792 -27 c-3 -10 -5 -2 -5 17 0 19 2 27 5 18 2 -10 2 -26 0 -35z
m2684 30 c13 -16 12 -17 -3 -4 -17 13 -22 21 -14 21 2 0 10 -8 17 -17z m644
-3 c10 -11 16 -20 13 -20 -3 0 -13 9 -23 20 -10 11 -16 20 -13 20 3 0 13 -9
23 -20z m-2935 -25 l-33 -34 24 -11 24 -11 -25 6 c-14 2 -29 5 -35 5 -5 0 9
18 30 40 21 22 41 40 44 40 3 0 -10 -16 -29 -35z m60 31 c0 -2 -8 -10 -17 -17
-16 -13 -17 -12 -4 4 13 16 21 21 21 13z m2385 -76 c38 -38 67 -70 64 -70 -2
0 -36 32 -74 70 -38 39 -67 70 -64 70 2 0 36 -31 74 -70z m-1858 23 c-3 -10
-5 -4 -5 12 0 17 2 24 5 18 2 -7 2 -21 0 -30z m-939 -33 c0 -9 -3 -7 -8 5 -5
11 -8 29 -8 40 0 16 2 15 8 -5 4 -14 8 -32 8 -40z m1722 56 c0 -2 -8 -10 -17
-17 -16 -13 -17 -12 -4 4 13 16 21 21 21 13z m1015 -56 c33 -33 57 -60 54 -60
-2 0 -31 27 -64 60 -33 33 -57 60 -54 60 2 0 31 -27 64 -60z m586 33 c13 -16
12 -17 -3 -4 -10 7 -18 15 -18 17 0 8 8 3 21 -13z m-2417 -27 c-3 -15 -8 -25
-11 -23 -2 3 -1 17 3 31 3 15 8 25 11 23 2 -3 1 -17 -3 -31z m-937 2 c-3 -8
-6 -5 -6 6 -1 11 2 17 5 13 3 -3 4 -12 1 -19z m433 -8 c-8 -5 -19 -10 -25 -10
-5 0 -3 5 5 10 8 5 20 10 25 10 6 0 3 -5 -5 -10z m527 -12 c-3 -8 -6 -5 -6 6
-1 11 2 17 5 13 3 -3 4 -12 1 -19z m-447 -2 l35 -13 -42 1 c-26 0 -37 4 -30 9
7 5 -1 6 -18 3 -22 -5 -26 -4 -15 4 19 12 26 12 70 -4z m820 -40 c0 -26 -6
-18 -14 19 -5 22 -4 26 4 15 5 -8 10 -24 10 -34z m-1172 -148 c32 -29 68 -61
82 -71 24 -17 23 -17 -8 0 -49 27 -146 131 -176 190 -39 78 -31 78 10 1 21
-39 60 -89 92 -120z m430 165 c18 -4 20 -8 10 -14 -17 -12 -31 -11 -23 0 3 5
-3 12 -12 14 -10 3 -13 5 -8 6 6 0 21 -2 33 -6z m307 -54 c-35 -68 -121 -158
-185 -193 -28 -15 -50 -25 -50 -23 0 3 24 18 53 35 66 38 139 115 174 186 15
31 29 54 31 52 2 -2 -9 -28 -23 -57z m-1288 19 c-3 -7 -5 -2 -5 12 0 14 2 19
5 13 2 -7 2 -19 0 -25z m423 -3 c0 -5 -5 -3 -10 5 -5 8 -10 20 -10 25 0 6 5 3
10 -5 5 -8 10 -19 10 -25z m890 -34 c-28 -56 -35 -52 -8 4 12 24 23 43 26 41
2 -2 -6 -22 -18 -45z m1921 22 c13 -16 12 -17 -3 -4 -17 13 -22 21 -14 21 2 0
10 -8 17 -17z m-2341 -8 c-14 -7 -28 -11 -32 -9 -4 3 -21 -2 -37 -11 -17 -8
-34 -15 -38 -15 -4 1 9 10 30 21 21 11 42 17 47 14 6 -3 10 -2 10 2 0 5 10 9
23 10 21 2 21 1 -3 -12z m837 -678 c-1 -127 -2 -23 -2 233 0 256 1 360 2 232
2 -127 2 -337 0 -465z m350 20 c-1 -122 -2 -22 -2 223 0 245 1 345 2 222 2
-122 2 -322 0 -445z m-1599 579 c18 -25 60 -63 93 -85 34 -23 57 -41 52 -41
-31 0 -143 100 -177 158 -17 28 3 9 32 -32z m329 28 c-3 -3 -12 -4 -19 -1 -8
3 -5 6 6 6 11 1 17 -2 13 -5z m135 -31 c34 -15 39 -21 25 -26 -11 -4 -16 -3
-12 3 3 5 -7 12 -22 16 -15 3 -48 12 -73 19 l-45 14 42 -4 c23 -2 61 -12 85
-22z m317 -13 c-26 -34 -83 -81 -119 -99 -21 -9 -22 -9 -6 1 47 33 97 75 116
101 29 37 36 35 9 -3z m-332 -47 c-8 -8 -23 -16 -33 -17 -17 -3 -19 -15 -24
-152 l-6 -149 -2 147 c-2 144 -2 147 22 166 30 23 65 27 43 5z m-40 -245 c-1
-40 -3 -8 -3 72 0 80 2 112 3 73 2 -40 2 -106 0 -145z m-222 182 c-3 -5 -12
-10 -18 -10 -7 0 -6 4 3 10 19 12 23 12 15 0z m34 -17 c-1 -10 -5 -31 -9 -48
-7 -25 -8 -23 -7 17 1 27 5 48 10 48 4 0 6 -8 6 -17z m393 1 c-12 -8 -22 -23
-23 -32 0 -11 -2 -13 -6 -4 -6 14 24 52 41 52 6 0 0 -7 -12 -16z m-34 -84 c1
-23 0 -23 -8 -5 -5 11 -8 36 -8 55 l0 35 8 -30 c4 -16 8 -41 8 -55z m-353 -10
c-4 -28 -9 -49 -12 -46 -3 2 -2 28 2 56 4 28 9 49 12 46 3 -2 2 -28 -2 -56z
m2642 8 c-2 -13 -4 -5 -4 17 -1 22 1 32 4 23 2 -10 2 -28 0 -40z m20 5 c-3
-10 -5 -4 -5 12 0 17 2 24 5 18 2 -7 2 -21 0 -30z m-2318 -68 c0 -26 -2 -27
-9 -10 -5 11 -9 34 -9 50 0 26 2 27 9 10 5 -11 9 -33 9 -50z m-334 -20 c-4
-31 -9 -54 -12 -51 -3 2 -1 30 2 61 4 31 9 54 12 51 3 -2 1 -30 -2 -61z m325
-50 c0 -23 -3 -27 -10 -15 -5 8 -10 29 -10 45 0 23 3 27 10 15 5 -8 10 -28 10
-45z m-313 8 c-3 -10 -5 -4 -5 12 0 17 2 24 5 18 2 -7 2 -21 0 -30z m128 -36
c75 1 146 -2 158 -7 14 -6 -34 -9 -140 -9 -149 -1 -163 0 -162 17 0 9 3 12 5
7 3 -7 54 -10 139 -8z m-1079 -49 l29 -33 -32 29 c-31 28 -38 36 -30 36 2 0
16 -15 33 -32z m3484 -32 c0 -2 -8 -10 -17 -17 -16 -13 -17 -12 -4 4 13 16 21
21 21 13z m-30 -39 c0 -2 -12 -14 -27 -28 l-28 -24 24 28 c23 25 31 32 31 24z
m80 -11 c0 -2 -8 -10 -17 -17 -16 -13 -17 -12 -4 4 13 16 21 21 21 13z m-100
-111 c-41 -41 -77 -75 -79 -75 -3 0 28 34 69 75 41 41 77 75 79 75 3 0 -28
-34 -69 -75z m-43 42 c0 -8 -6 -14 -14 -14 -9 0 -10 4 -2 14 6 7 12 13 14 13
1 0 2 -6 2 -13z m-47 -30 c0 -2 -15 -16 -32 -33 l-33 -29 29 33 c28 30 36 37
36 29z m-70 -61 c0 -2 -8 -10 -17 -17 -16 -13 -17 -12 -4 4 13 16 21 21 21 13z
m-40 -30 c0 -2 -8 -10 -17 -17 -16 -13 -17 -12 -4 4 13 16 21 21 21 13z m110
1 c0 -2 -10 -12 -22 -23 l-23 -19 19 23 c18 21 26 27 26 19z m-80 -61 c0 -2
-8 -10 -17 -17 -16 -13 -17 -12 -4 4 13 16 21 21 21 13z m-3233 -158 c-2 -18
-4 -4 -4 32 0 36 2 50 4 33 2 -18 2 -48 0 -65z m3923 -11 c0 -2 -15 -16 -32
-33 l-33 -29 29 33 c28 30 36 37 36 29z m-1575 -27 c10 -11 16 -20 13 -20 -3
0 -13 9 -23 20 -10 11 -16 20 -13 20 3 0 13 -9 23 -20z m-555 -55 c0 -4 -19
-15 -42 -25 -41 -19 -70 -19 -703 -17 l-660 2 670 5 c608 5 673 7 700 22 34
20 35 20 35 13z m-3332 -42 c-27 -2 -69 -2 -95 0 -27 2 -5 3 47 3 52 0 74 -1
48 -3z m179 -109 c-3 -3 -12 -4 -19 -1 -8 3 -5 6 6 6 11 1 17 -2 13 -5z m553
-69 c30 -17 44 -19 35 -5 -11 18 1 10 26 -17 13 -14 18 -23 10 -18 -11 6 -13
4 -6 -11 12 -28 19 -108 8 -101 -5 3 -10 -3 -10 -14 -1 -11 2 -17 8 -14 17 11
9 -2 -18 -26 -14 -13 -23 -18 -19 -11 9 16 5 15 -30 -3 -58 -30 -144 -15 -188
34 -10 11 -23 18 -28 15 -6 -4 -5 4 2 16 10 18 9 21 0 15 -10 -6 -12 3 -8 38
4 31 2 44 -5 40 -6 -3 -7 -1 -3 6 4 6 11 9 16 6 4 -3 14 3 21 12 42 50 135 69
189 38z m267 -41 c-3 -3 -12 -4 -19 -1 -8 3 -5 6 6 6 11 1 17 -2 13 -5z m131
-11 c-21 -2 -55 -2 -75 0 -21 2 -4 4 37 4 41 0 58 -2 38 -4z m-301 -75 c-2
-13 -4 -5 -4 17 -1 22 1 32 4 23 2 -10 2 -28 0 -40z m-326 0 c0 -108 4 -146
14 -141 5 3 -3 -8 -19 -25 -30 -33 -43 -41 -30 -20 5 8 2 9 -12 3 -31 -14
-138 -19 -130 -6 4 6 1 9 -6 6 -8 -3 -25 6 -37 19 -13 14 -27 23 -32 21 -4 -3
-6 3 -4 12 12 58 12 103 2 96 -7 -3 1 8 17 25 16 17 32 29 36 27 4 -2 21 0 39
5 19 5 31 5 31 -1 0 -5 5 -9 11 -9 5 0 7 5 4 10 -8 14 -1 13 42 -5 43 -18 46
-18 37 -3 -4 7 -3 8 5 4 6 -4 8 -12 5 -18 -4 -7 -2 -8 4 -4 7 4 12 16 12 27 0
10 2 19 5 19 3 0 6 -19 6 -42z m-363 -55 c-10 -2 -26 -2 -35 0 -10 3 -2 5 17
5 19 0 27 -2 18 -5z m50 -15 c-4 -8 33 -48 41 -43 4 2 5 -13 3 -33 -5 -41 -39
-85 -60 -77 -8 3 -10 0 -6 -7 5 -8 -10 -9 -56 -5 -40 3 -58 2 -49 -4 8 -5 9
-9 3 -9 -11 0 -84 74 -84 85 0 3 5 5 10 5 6 0 10 -6 10 -14 0 -8 4 -17 8 -20
4 -2 8 15 8 39 0 24 -4 41 -8 39 -17 -11 -7 3 19 27 14 13 23 19 20 13 -5 -8
2 -11 18 -10 14 0 25 5 25 10 0 5 24 6 53 3 38 -5 48 -4 37 4 -10 7 -10 9 -2
7 8 -2 12 -6 10 -10z m351 -1 c8 -10 7 -14 -4 -14 -8 0 -15 6 -15 14 0 7 2 13
4 13 2 0 9 -6 15 -13z m-713 -55 c-3 -5 18 -7 47 -4 67 5 107 -22 107 -73 0
-51 -40 -78 -107 -73 -29 3 -50 1 -47 -4 10 -17 -3 -7 -27 19 -13 14 -19 23
-13 20 7 -4 11 9 11 39 0 27 -4 40 -9 32 -4 -7 -8 -9 -8 -4 0 6 10 20 22 33
21 23 34 30 24 15z m867 1 c-13 -2 -35 -2 -50 0 -16 2 -5 4 22 4 28 0 40 -2
28 -4z m-916 -85 c-3 -8 -6 -5 -6 6 -1 11 2 17 5 13 3 -3 4 -12 1 -19z m366
-45 c-13 -2 -33 -2 -45 0 -13 2 -3 4 22 4 25 0 35 -2 23 -4z m2920 -230 c-7
-2 -19 -2 -25 0 -7 3 -2 5 12 5 14 0 19 -2 13 -5z m1850 0 c-7 -2 -21 -2 -30
0 -10 3 -4 5 12 5 17 0 24 -2 18 -5z m-1840 -20 c-7 -2 -21 -2 -30 0 -10 3 -4
5 12 5 17 0 24 -2 18 -5z m1825 0 c-20 -3 -28 -10 -29 -26 0 -12 -3 -16 -6 -9
-9 24 6 42 34 41 l28 -2 -27 -4z m-1221 -25 c-3 -8 -6 -5 -6 6 -1 11 2 17 5
13 3 -3 4 -12 1 -19z m20 -145 c-2 -32 -3 -6 -3 57 0 63 1 89 3 58 2 -32 2
-84 0 -115z m354 150 c13 -16 12 -17 -3 -4 -17 13 -22 21 -14 21 2 0 10 -8 17
-17z m256 -165 c-2 -35 -3 -7 -3 62 0 69 1 97 3 63 2 -35 2 -91 0 -125z m60 0
c-2 -35 -3 -7 -3 62 0 69 1 97 3 63 2 -35 2 -91 0 -125z m30 0 c-2 -35 -3 -7
-3 62 0 69 1 97 3 63 2 -35 2 -91 0 -125z m-4380 166 c-3 -3 -12 -4 -19 -1 -8
3 -5 6 6 6 11 1 17 -2 13 -5z m2170 -31 c-3 -10 -5 -4 -5 12 0 17 2 24 5 18 2
-7 2 -21 0 -30z m-1170 -35 c-2 -13 -4 -5 -4 17 -1 22 1 32 4 23 2 -10 2 -28
0 -40z m-1147 29 c0 -2 -12 -14 -27 -28 l-28 -24 24 28 c23 25 31 32 31 24z
m540 -10 c0 -2 -12 -14 -27 -28 l-28 -24 24 28 c23 25 31 32 31 24z m1671 -14
c13 -16 12 -17 -3 -4 -10 7 -18 15 -18 17 0 8 8 3 21 -13z m610 0 c13 -16 12
-17 -3 -4 -17 13 -22 21 -14 21 2 0 10 -8 17 -17z m316 -15 c-3 -7 -5 -2 -5
12 0 14 2 19 5 13 2 -7 2 -19 0 -25z m310 -105 c-2 -27 -3 -5 -3 47 0 52 1 74
3 48 2 -27 2 -69 0 -95z m1203 134 c0 -2 -10 -12 -22 -23 l-23 -19 19 23 c18
21 26 27 26 19z m105 -17 c10 -11 16 -20 13 -20 -3 0 -13 9 -23 20 -10 11 -16
20 -13 20 3 0 13 -9 23 -20z m756 3 c13 -16 12 -17 -3 -4 -10 7 -18 15 -18 17
0 8 8 3 21 -13z m-1291 -3 c0 -5 -17 -9 -37 -9 l-38 2 35 7 c19 4 36 8 38 9 1
0 2 -3 2 -9z m777 -123 c-2 -23 -3 -1 -3 48 0 50 1 68 3 42 2 -26 2 -67 0 -90z
m-2840 97 c-3 -3 -12 -4 -19 -1 -8 3 -5 6 6 6 11 1 17 -2 13 -5z m160 -71 c-2
-16 -4 -3 -4 27 0 30 2 43 4 28 2 -16 2 -40 0 -55z m457 68 c4 -5 -3 -7 -14
-4 -23 6 -26 13 -6 13 8 0 17 -4 20 -9z m563 3 c-3 -3 -12 -4 -19 -1 -8 3 -5
6 6 6 11 1 17 -2 13 -5z m210 0 c-3 -3 -12 -4 -19 -1 -8 3 -5 6 6 6 11 1 17
-2 13 -5z m450 -26 c-3 -7 -5 -2 -5 12 0 14 2 19 5 13 2 -7 2 -19 0 -25z m680
17 c0 -8 -4 -12 -9 -9 -5 3 -6 10 -3 15 9 13 12 11 12 -6z m38 6 c3 -5 2 -12
-3 -15 -5 -3 -9 1 -9 9 0 17 3 19 12 6z m-1800 -11 c-3 -5 -18 -9 -33 -9 l-27
1 30 8 c17 4 31 8 33 9 2 0 0 -3 -3 -9z m775 -6 c0 -2 -13 -4 -30 -4 -16 0
-30 4 -30 8 0 5 14 7 30 4 17 -2 30 -6 30 -8z m107 -61 c-2 -16 -4 -3 -4 27 0
30 2 43 4 28 2 -16 2 -40 0 -55z m1334 63 c-7 -8 -21 -12 -34 -8 -20 6 -20 7
8 13 17 4 32 7 34 8 2 0 -2 -5 -8 -13z m-2174 -2 c-3 -3 -12 -4 -19 -1 -8 3
-5 6 6 6 11 1 17 -2 13 -5z m2220 0 c-3 -3 -12 -4 -19 -1 -8 3 -5 6 6 6 11 1
17 -2 13 -5z m-2450 -86 c-2 -18 -4 -6 -4 27 0 33 2 48 4 33 2 -15 2 -42 0
-60z m20 0 c-2 -18 -4 -6 -4 27 0 33 2 48 4 33 2 -15 2 -42 0 -60z m490 50
c-3 -7 -5 -2 -5 12 0 14 2 19 5 13 2 -7 2 -19 0 -25z m-2514 15 c-7 -2 -21 -2
-30 0 -10 3 -4 5 12 5 17 0 24 -2 18 -5z m514 1 c-3 -3 -12 -4 -19 -1 -8 3 -5
6 6 6 11 1 17 -2 13 -5z m1620 -56 c-3 -7 -5 -2 -5 12 0 14 2 19 5 13 2 -7 2
-19 0 -25z m-1080 -275 c-1 -54 -3 -10 -3 97 0 107 2 151 3 98 2 -54 2 -142 0
-195z m20 5 c-1 -51 -3 -10 -3 92 0 102 2 143 3 93 2 -51 2 -135 0 -185z
m1340 250 c-3 -8 -6 -5 -6 6 -1 11 2 17 5 13 3 -3 4 -12 1 -19z m1063 19 c0
-2 -10 -12 -22 -23 l-23 -19 19 23 c18 21 26 27 26 19z m-1690 -11 c0 -2 -8
-10 -17 -17 -16 -13 -17 -12 -4 4 13 16 21 21 21 13z m-177 -33 c-7 -2 -21 -2
-30 0 -10 3 -4 5 12 5 17 0 24 -2 18 -5z m800 0 c-7 -2 -21 -2 -30 0 -10 3 -4
5 12 5 17 0 24 -2 18 -5z m2210 0 c-7 -2 -19 -2 -25 0 -7 3 -2 5 12 5 14 0 19
-2 13 -5z m-2220 -20 c-7 -2 -19 -2 -25 0 -7 3 -2 5 12 5 14 0 19 -2 13 -5z
m2220 0 c-7 -2 -19 -2 -25 0 -7 3 -2 5 12 5 14 0 19 -2 13 -5z m-4746 -50 c-3
-10 -5 -2 -5 17 0 19 2 27 5 18 2 -10 2 -26 0 -35z m20 0 c-3 -10 -5 -2 -5 17
0 19 2 27 5 18 2 -10 2 -26 0 -35z m3583 -17 c0 -2 -8 -10 -17 -17 -16 -13
-17 -12 -4 4 13 16 21 21 21 13z m151 -13 c13 -16 12 -17 -3 -4 -17 13 -22 21
-14 21 2 0 10 -8 17 -17z m916 -5 c-3 -8 -6 -5 -6 6 -1 11 2 17 5 13 3 -3 4
-12 1 -19z m-3240 -65 c-3 -10 -5 -2 -5 17 0 19 2 27 5 18 2 -10 2 -26 0 -35z
m313 34 c0 -2 -10 -12 -22 -23 l-23 -19 19 23 c18 21 26 27 26 19z m911 -14
c13 -16 12 -17 -3 -4 -17 13 -22 21 -14 21 2 0 10 -8 17 -17z m1679 13 c0 -2
-8 -10 -17 -17 -16 -13 -17 -12 -4 4 13 16 21 21 21 13z m-2469 -23 c13 -16
12 -17 -3 -4 -10 7 -18 15 -18 17 0 8 8 3 21 -13z m-366 -13 c-3 -5 -18 -9
-33 -9 l-27 1 30 8 c17 4 31 8 33 9 2 0 0 -3 -3 -9z m302 -6 c-3 -3 -12 -4
-19 -1 -8 3 -5 6 6 6 11 1 17 -2 13 -5z m580 -86 c-2 -18 -4 -4 -4 32 0 36 2
50 4 33 2 -18 2 -48 0 -65z m120 86 c-3 -3 -12 -4 -19 -1 -8 3 -5 6 6 6 11 1
17 -2 13 -5z m103 2 c0 -2 -9 -6 -20 -9 -11 -3 -18 -1 -14 4 5 9 34 13 34 5z
m287 -2 c-3 -3 -12 -4 -19 -1 -8 3 -5 6 6 6 11 1 17 -2 13 -5z m1000 0 c-3 -3
-12 -4 -19 -1 -8 3 -5 6 6 6 11 1 17 -2 13 -5z m200 0 c-3 -3 -12 -4 -19 -1
-8 3 -5 6 6 6 11 1 17 -2 13 -5z m308 -3 c3 -5 2 -12 -3 -15 -5 -3 -9 1 -9 9
0 17 3 19 12 6z m272 -69 c-2 -15 -4 -2 -4 28 0 30 2 43 4 28 2 -16 2 -40 0
-56z m-3117 54 c0 -2 -8 -10 -17 -17 -16 -13 -17 -12 -4 4 13 16 21 21 21 13z
m708 -3 c-10 -2 -26 -2 -35 0 -10 3 -2 5 17 5 19 0 27 -2 18 -5z m249 -85 c-2
-18 -4 -4 -4 32 0 36 2 50 4 33 2 -18 2 -48 0 -65z m1984 65 c13 -16 12 -17
-3 -4 -17 13 -22 21 -14 21 2 0 10 -8 17 -17z m-3064 -75 c-2 -13 -4 -3 -4 22
0 25 2 35 4 23 2 -13 2 -33 0 -45z m3088 52 c-3 -5 -16 -10 -28 -9 -20 1 -20
2 3 9 14 4 26 8 28 9 2 1 0 -3 -3 -9z m-4600 -30 c10 -11 16 -20 13 -20 -3 0
-13 9 -23 20 -10 11 -16 20 -13 20 3 0 13 -9 23 -20z m375 17 c0 -2 -10 -12
-22 -23 l-23 -19 19 23 c18 21 26 27 26 19z m3615 -7 c-3 -5 -12 -10 -18 -10
-7 0 -6 4 3 10 19 12 23 12 15 0z m-4555 -25 c13 -14 21 -25 18 -25 -2 0 -15
11 -28 25 -13 14 -21 25 -18 25 2 0 15 -11 28 -25z m290 22 c0 -2 -10 -12 -22
-23 l-23 -19 19 23 c18 21 26 27 26 19z m2230 -10 c0 -2 -10 -12 -22 -23 l-23
-19 19 23 c18 21 26 27 26 19z m55 -17 c10 -11 16 -20 13 -20 -3 0 -13 9 -23
20 -10 11 -16 20 -13 20 3 0 13 -9 23 -20z m2035 17 c0 -2 -10 -12 -22 -23
l-23 -19 19 23 c18 21 26 27 26 19z m670 -11 c0 -2 -8 -10 -17 -17 -16 -13
-17 -12 -4 4 13 16 21 21 21 13z m-357 -33 c-7 -2 -21 -2 -30 0 -10 3 -4 5 12
5 17 0 24 -2 18 -5z m470 0 c-7 -2 -21 -2 -30 0 -10 3 -4 5 12 5 17 0 24 -2
18 -5z m-1398 -21 c-3 -3 -11 0 -18 7 -9 10 -8 11 6 5 10 -3 15 -9 12 -12z
m-3278 2 c-3 -3 -12 -4 -19 -1 -8 3 -5 6 6 6 11 1 17 -2 13 -5z m70 0 c-3 -3
-12 -4 -19 -1 -8 3 -5 6 6 6 11 1 17 -2 13 -5z"/>
<path d="M3445 3385 c-94 -86 -171 -162 -173 -169 -2 -7 5 -19 15 -27 16 -13
17 -12 5 3 -8 10 -12 21 -10 25 1 5 62 62 133 128 72 65 147 134 167 154 l38
35 27 -25 28 -24 -24 28 c-14 15 -27 27 -31 27 -3 0 -82 -70 -175 -155z"/>
<path d="M3520 3344 c-74 -69 -148 -139 -165 -157 l-30 -32 35 31 c19 16 94
83 165 149 72 65 134 123 140 127 5 5 5 8 0 7 -6 0 -71 -56 -145 -125z"/>
<path d="M2250 3506 c0 -2 62 -60 138 -127 154 -137 209 -184 147 -124 -67 65
-285 257 -285 251z"/>
<path d="M3630 2789 c19 -12 43 -28 53 -37 9 -8 17 -12 17 -9 0 10 -81 67 -94
67 -6 0 5 -10 24 -21z"/>
<path d="M2760 2005 c0 -13 25 -15 165 -15 140 0 165 2 165 15 0 13 -25 15
-165 15 -140 0 -165 -2 -165 -15z m248 -2 c-42 -2 -114 -2 -160 0 -46 1 -11 3
77 3 88 0 125 -2 83 -3z"/>
<path d="M2760 1910 c0 -19 7 -20 165 -20 158 0 165 1 165 20 0 19 -7 20 -165
20 -158 0 -165 -1 -165 -20z m320 0 c0 -6 -58 -10 -155 -10 -97 0 -155 4 -155
10 0 6 58 10 155 10 97 0 155 -4 155 -10z"/>
<path d="M2760 1820 c0 -19 7 -20 165 -20 158 0 165 1 165 20 0 19 -7 20 -165
20 -158 0 -165 -1 -165 -20z m320 3 c0 -5 -70 -8 -155 -8 -85 0 -155 3 -155 8
0 4 70 7 155 7 85 0 155 -3 155 -7z"/>
<path d="M2870 1730 c0 -18 6 -20 58 -18 l57 2 -52 3 c-29 2 -53 9 -53 14 0 6
19 9 45 8 24 -2 47 0 51 4 4 4 -18 7 -49 7 -50 0 -57 -2 -57 -20z"/>
<path d="M1082 1241 c-10 -6 -10 -10 3 -21 13 -11 14 -10 9 5 -6 14 -4 16 6
10 9 -5 11 -4 6 3 -8 14 -7 14 -24 3z"/>
<path d="M935 1198 c-40 -23 -45 -48 -15 -78 41 -41 140 -16 140 35 0 45 -75
71 -125 43z m72 -4 c-3 -3 -12 -4 -19 -1 -8 3 -5 6 6 6 11 1 17 -2 13 -5z m-4
-81 c-7 -2 -21 -2 -30 0 -10 3 -4 5 12 5 17 0 24 -2 18 -5z"/>
<path d="M1079 1083 c-13 -16 -12 -17 4 -4 9 7 17 15 17 17 0 8 -8 3 -21 -13z"/>
<path d="M593 1127 c-18 -22 -18 -22 3 -4 16 13 23 15 26 6 3 -9 6 -10 11 -2
13 21 -21 21 -40 0z"/>
<path d="M770 1126 c0 -2 6 -9 14 -15 10 -9 15 -8 19 2 3 8 -3 13 -14 14 -10
1 -19 0 -19 -1z"/>
<path d="M670 1087 c-28 -14 -39 -55 -18 -68 20 -13 82 -11 96 3 39 39 -24 92
-78 65z m3 -14 c-7 -2 -13 -14 -14 -26 0 -12 -3 -16 -6 -9 -7 18 4 42 19 41
10 0 10 -2 1 -6z m67 -8 c19 -22 8 -25 -12 -3 -10 10 -14 18 -9 18 5 0 14 -7
21 -15z m-13 -41 c-3 -3 -12 -4 -19 -1 -8 3 -5 6 6 6 11 1 17 -2 13 -5z"/>
<path d="M799 973 c-13 -16 -12 -17 4 -4 9 7 17 15 17 17 0 8 -8 3 -21 -13z"/>
<path d="M359 1023 c-13 -16 -12 -17 4 -4 9 7 17 15 17 17 0 8 -8 3 -21 -13z"/>
<path d="M525 1010 c3 -5 8 -10 11 -10 2 0 4 5 4 10 0 6 -5 10 -11 10 -5 0 -7
-4 -4 -10z"/>
<path d="M405 990 c-3 -5 0 -13 9 -16 21 -8 61 -1 61 11 0 14 -62 19 -70 5z
m52 -6 c-3 -3 -12 -4 -19 -1 -8 3 -5 6 6 6 11 1 17 -2 13 -5z"/>
<path d="M340 936 c0 -2 8 -10 18 -17 15 -13 16 -12 3 4 -13 16 -21 21 -21 13z"/>
<path d="M139 973 c-13 -16 -12 -17 4 -4 9 7 17 15 17 17 0 8 -8 3 -21 -13z"/>
<path d="M193 933 c9 -2 23 -2 30 0 6 3 -1 5 -18 5 -16 0 -22 -2 -12 -5z"/>
<path d="M130 906 c0 -2 8 -10 18 -17 15 -13 16 -12 3 4 -13 16 -21 21 -21 13z"/>
<path d="M61 2757 c-5 -7 -6 -18 -2 -25 6 -9 12 -8 25 7 14 16 15 19 2 24 -8
3 -19 0 -25 -6z m19 -7 c0 -5 -5 -10 -11 -10 -5 0 -7 5 -4 10 3 6 8 10 11 10
2 0 4 -4 4 -10z"/>
<path d="M1671 2366 c0 -120 5 -216 10 -216 13 0 12 417 -1 425 -8 5 -10 -61
-9 -209z"/>
<path d="M555 2337 c-55 -18 -87 -36 -81 -46 3 -4 -7 -19 -22 -32 l-27 -24 24
28 c14 15 19 27 13 27 -7 0 -25 -18 -41 -40 -15 -21 -30 -38 -32 -35 -3 2 -2
-26 2 -63 4 -52 2 -71 -9 -84 -19 -22 -9 -24 12 -2 12 11 16 12 16 2 -1 -14
-89 -73 -106 -70 -6 1 -20 -8 -32 -21 -20 -21 -20 -23 -2 -23 10 0 16 5 13 10
-3 5 -1 6 5 2 8 -5 10 -1 5 10 -5 13 -2 16 9 12 9 -4 22 -1 29 5 8 7 1 -2 -15
-20 -16 -18 -33 -30 -37 -27 -4 2 -10 0 -14 -6 -4 -6 -10 -8 -14 -6 -4 3 -8
-9 -9 -26 0 -17 -7 -35 -14 -40 -10 -8 -10 -11 0 -15 6 -2 12 -11 12 -18 0 -7
9 -23 21 -36 11 -13 17 -17 13 -9 -4 9 -3 12 2 7 5 -5 9 -14 9 -19 0 -6 6 -13
14 -16 9 -3 11 0 6 8 -5 9 -4 11 4 6 6 -4 9 -12 6 -17 -3 -5 14 -19 39 -31 26
-12 46 -25 46 -29 0 -4 -7 -23 -15 -44 -18 -41 -36 -167 -23 -159 4 3 8 -2 8
-10 0 -10 9 -16 23 -16 21 0 22 4 19 57 -2 45 0 54 8 43 9 -12 10 -11 5 7 -7
27 31 107 47 97 6 -4 9 -1 6 7 -3 8 -11 13 -17 11 -7 -1 -10 2 -6 8 3 5 1 10
-6 10 -7 0 -9 3 -6 6 4 4 13 2 20 -4 8 -7 17 -9 21 -5 3 4 -26 23 -66 42 -40
19 -77 37 -82 39 -5 3 -5 -2 -1 -9 5 -8 -4 -3 -18 10 -27 24 -36 37 -18 27 5
-3 8 5 7 18 0 13 -5 22 -10 19 -10 -7 3 38 15 51 13 15 11 28 -3 20 -7 -4 0 7
16 24 30 32 49 44 26 17 -8 -9 -9 -15 -2 -15 11 0 27 19 27 32 0 3 4 10 9 15
5 5 6 3 2 -4 -4 -7 -5 -13 -2 -13 4 0 73 38 85 46 2 2 -4 20 -14 40 -17 36
-17 89 0 128 7 15 5 18 -6 11 -8 -4 2 8 20 28 34 36 48 47 36 27 -8 -14 -4
-13 46 9 68 30 132 36 170 17 38 -19 42 -20 33 -4 -4 7 -3 8 5 4 6 -4 9 -11 6
-15 -6 -10 29 -43 37 -35 3 3 9 0 14 -7 5 -8 3 -10 -6 -4 -7 4 -11 4 -8 -1 2
-5 11 -24 18 -41 8 -18 18 -33 22 -33 5 0 27 14 50 31 31 22 49 28 68 24 20
-4 22 -3 10 5 -11 9 -7 10 20 5 26 -5 31 -4 20 4 -8 6 -10 11 -4 11 5 0 23
-14 40 -32 16 -17 23 -27 15 -23 -11 7 -13 4 -6 -11 5 -10 8 -31 8 -45 0 -25
1 -25 19 -10 20 17 25 36 6 25 -7 -4 -4 2 6 14 20 23 32 30 21 12 -9 -15 11
-12 24 4 9 10 9 16 1 21 -8 5 -8 11 1 21 7 8 7 14 1 14 -5 0 -15 -7 -22 -16
-12 -13 -15 -11 -26 16 -9 20 -18 29 -25 24 -8 -4 -9 -3 -5 4 4 8 -4 16 -21
23 -33 12 -101 -2 -150 -32 -32 -20 -32 -20 -43 1 -6 11 -15 18 -19 16 -10 -6
-40 25 -39 39 1 6 -16 19 -38 30 -48 24 -144 29 -199 12z m132 -23 c-3 -3 -12
-4 -19 -1 -8 3 -5 6 6 6 11 1 17 -2 13 -5z m-280 -186 c-2 -13 -4 -3 -4 22 0
25 2 35 4 23 2 -13 2 -33 0 -45z m23 -28 c0 -5 -5 -10 -11 -10 -5 0 -7 5 -4
10 3 6 8 10 11 10 2 0 4 -4 4 -10z m-173 -222 c-3 -8 -6 -5 -6 6 -1 11 2 17 5
13 3 -3 4 -12 1 -19z m134 -391 c-10 -9 -11 -8 -5 6 3 10 9 15 12 12 3 -3 0
-11 -7 -18z"/>
<path d="M805 2300 c1 -11 7 -26 15 -33 10 -9 11 -9 6 1 -4 6 -3 12 1 12 5 0
15 -6 23 -12 8 -7 2 2 -14 20 -17 17 -30 32 -31 32 -1 0 -1 -9 0 -20z"/>
<path d="M1269 2280 c-25 -5 -61 -16 -80 -26 -19 -10 -41 -17 -49 -16 -13 3
-13 2 0 -7 8 -5 19 -7 25 -4 5 4 2 -3 -8 -14 -24 -28 -6 -39 27 -18 14 9 31
13 37 9 7 -4 9 -3 6 3 -9 14 39 23 116 23 70 0 174 -29 155 -43 -9 -5 -6 -6 8
-3 14 4 41 -7 83 -34 63 -41 77 -47 66 -31 -3 5 0 13 6 17 9 5 10 0 7 -14 -4
-12 -2 -25 3 -28 5 -3 9 6 9 20 0 17 -11 33 -32 49 -120 89 -268 135 -379 117z
m24 -17 c-7 -2 -19 -2 -25 0 -7 3 -2 5 12 5 14 0 19 -2 13 -5z m90 0 c-7 -2
-19 -2 -25 0 -7 3 -2 5 12 5 14 0 19 -2 13 -5z m24 -19 c-3 -3 -12 -4 -19 -1
-8 3 -5 6 6 6 11 1 17 -2 13 -5z m53 -4 c-8 -5 -19 -10 -25 -10 -5 0 -3 5 5
10 8 5 20 10 25 10 6 0 3 -5 -5 -10z m25 -10 c-3 -5 -12 -10 -18 -10 -7 0 -6
4 3 10 19 12 23 12 15 0z"/>
<path d="M474 2228 l-19 -23 23 19 c12 11 22 21 22 23 0 8 -8 2 -26 -19z"/>
<path d="M750 2246 c0 -2 8 -10 18 -17 15 -13 16 -12 3 4 -13 16 -21 21 -21
13z"/>
<path d="M860 2239 c0 -5 5 -7 10 -4 6 3 10 8 10 11 0 2 -4 4 -10 4 -5 0 -10
-5 -10 -11z"/>
<path d="M1010 2199 c-13 -9 -13 -10 1 -6 9 3 23 0 30 -6 11 -10 11 -9 0 6 -7
9 -14 17 -15 17 0 0 -8 -5 -16 -11z"/>
<path d="M1107 2135 c3 -8 9 -12 14 -9 12 7 11 11 -5 17 -10 4 -13 1 -9 -8z"/>
<path d="M1690 2086 c0 -2 8 -10 18 -17 15 -13 16 -12 3 4 -13 16 -21 21 -21
13z"/>
<path d="M1671 1888 c-1 -115 3 -189 9 -193 6 -3 10 -21 10 -38 0 -26 -2 -29
-11 -17 -9 12 -10 12 -5 -4 4 -11 -2 -33 -14 -53 -22 -38 -25 -47 -10 -38 19
12 10 -1 -22 -31 -17 -16 -28 -23 -23 -15 5 9 3 12 -6 9 -8 -3 -14 -10 -14
-16 0 -5 -4 -14 -9 -19 -5 -5 -6 -3 -2 5 9 15 6 15 -37 -3 -31 -13 -118 -15
-567 -15 -340 0 -529 -3 -525 -10 3 -5 20 -7 37 -3 22 4 29 3 24 -5 -4 -6 -13
-9 -21 -5 -8 3 -15 2 -15 -1 0 -10 50 -27 86 -28 18 -1 36 -8 38 -15 3 -8 10
-12 15 -9 5 3 15 -2 22 -12 13 -16 12 -16 -6 -2 -20 15 -20 15 0 -9 11 -12 28
-28 39 -33 25 -13 137 -27 130 -16 -3 4 4 8 16 8 39 0 165 74 155 90 -3 5 0
12 7 17 7 4 -93 10 -222 13 l-235 6 263 2 c144 1 262 -2 262 -7 0 -4 -10 -6
-23 -4 -14 3 -29 -2 -36 -11 -15 -17 -1 -22 15 -6 7 7 38 -3 98 -30 179 -83
330 -109 440 -76 51 15 128 61 123 74 -1 4 3 8 8 10 15 5 45 34 45 44 0 5 -5
6 -12 2 -7 -4 -8 -3 -4 5 4 6 12 9 17 6 5 -4 14 5 20 19 7 14 16 23 20 20 5
-3 8 3 7 13 -3 37 2 74 10 69 15 -9 3 67 -18 108 l-20 40 25 26 c26 27 34 46
13 34 -7 -5 -8 -3 -3 6 6 10 11 9 23 -6 9 -12 12 -13 9 -4 -2 8 -1 22 4 31 13
25 28 99 19 94 -8 -5 -24 51 -21 75 2 11 -2 10 -12 -4 -11 -15 -16 -16 -22 -6
-5 9 -4 11 3 6 7 -4 12 -3 12 2 0 11 -21 30 -35 31 -5 1 -10 6 -10 12 0 6 -9
18 -20 25 -20 13 -20 11 -15 -175 3 -104 2 -187 -2 -184 -5 2 -8 82 -9 176 0
95 -4 181 -9 192 -5 12 -9 -53 -9 -167z m46 -170 c-3 -8 -6 -5 -6 6 -1 11 2
17 5 13 3 -3 4 -12 1 -19z m30 -170 c-3 -8 -6 -5 -6 6 -1 11 2 17 5 13 3 -3 4
-12 1 -19z m-344 -105 c-62 -2 -165 -2 -230 0 -65 1 -14 3 112 3 127 0 180 -2
118 -3z m-830 -20 c-7 -2 -19 -2 -25 0 -7 3 -2 5 12 5 14 0 19 -2 13 -5z m254
-89 c-3 -3 -12 -4 -19 -1 -8 3 -5 6 6 6 11 1 17 -2 13 -5z m-74 -11 c-7 -2
-19 -2 -25 0 -7 3 -2 5 12 5 14 0 19 -2 13 -5z m584 1 c-3 -3 -12 -4 -19 -1
-8 3 -5 6 6 6 11 1 17 -2 13 -5z m116 -11 c-18 -2 -48 -2 -65 0 -18 2 -4 4 32
4 36 0 50 -2 33 -4z"/>
<path d="M326 1942 c-2 -4 -1 -14 3 -20 6 -10 11 -9 21 3 11 13 10 14 -5 9
-13 -5 -16 -4 -11 4 4 7 5 12 2 12 -3 0 -7 -4 -10 -8z"/>
<path d="M317 1815 c-4 -8 -1 -17 5 -21 7 -5 8 -2 3 6 -6 10 -4 12 10 6 15 -5
16 -4 5 9 -15 19 -16 19 -23 0z"/>
<path d="M65 1550 c10 -11 20 -20 23 -20 3 0 -3 9 -13 20 -10 11 -20 20 -23
20 -3 0 3 -9 13 -20z"/>
<path d="M1604 1538 l-19 -23 23 19 c21 18 27 26 19 26 -2 0 -12 -10 -23 -22z"/>
<path d="M60 1525 c13 -14 26 -25 28 -25 3 0 -5 11 -18 25 -13 14 -26 25 -28
25 -3 0 5 -11 18 -25z"/>
<path d="M1619 1523 c-13 -16 -12 -17 4 -4 9 7 17 15 17 17 0 8 -8 3 -21 -13z"/>
<path d="M1729 1373 c-13 -16 -12 -17 4 -4 9 7 17 15 17 17 0 8 -8 3 -21 -13z"/>
<path d="M1730 1345 c-16 -17 -26 -21 -31 -14 -4 7 -9 8 -13 1 -15 -24 24 -18
50 9 15 16 25 29 23 29 -3 0 -16 -11 -29 -25z"/>
<path d="M577 1316 c-7 -19 4 -27 21 -17 10 6 10 10 -1 20 -12 9 -16 8 -20 -3z"/>
<path d="M965 1310 c-3 -5 -2 -10 4 -10 5 0 13 5 16 10 3 6 2 10 -4 10 -5 0
-13 -4 -16 -10z"/>
<path d="M1403 1283 c9 -2 23 -2 30 0 6 3 -1 5 -18 5 -16 0 -22 -2 -12 -5z"/>
</g>
</svg>
